<?xml version="1.0" standalone="no"?>
<!DOCTYPE svg PUBLIC "-//W3C//DTD SVG 20010904//EN"
 "http://www.w3.org/TR/2001/REC-SVG-20010904/DTD/svg10.dtd">
<svg version="1.0" xmlns="http://www.w3.org/2000/svg"
 width="746.000000pt" height="746.000000pt" viewBox="0 0 746.000000 746.000000"
 preserveAspectRatio="xMidYMid meet">
<metadata>
Created by potrace 1.11, written by Peter Selinger 2001-2013
</metadata>
<g transform="translate(0.000000,746.000000) scale(0.100000,-0.100000)"
fill="#000000" stroke="none">
<path d="M2640 7443 c-86 -24 -144 -59 -208 -127 -60 -63 -112 -166 -139 -273
-27 -105 -24 -345 6 -488 108 -526 481 -1061 887 -1272 216 -113 417 -132 568
-56 68 34 158 123 193 189 30 58 34 61 53 39 6 -8 36 -23 66 -35 289 -108 684
209 827 665 40 125 51 192 50 310 -1 218 -74 370 -212 437 -66 33 -179 37
-268 9 -172 -52 -362 -223 -474 -427 -23 -41 -44 -74 -48 -74 -3 0 -15 24 -25
53 -28 81 -131 281 -193 376 -128 198 -318 401 -476 509 -91 63 -238 134 -322
156 -96 26 -209 29 -285 9z"/>
<path d="M3467 4770 c-495 -48 -949 -212 -1189 -429 -220 -199 -397 -541 -471
-911 -45 -223 -54 -401 -31 -648 l6 -62 -38 -16 c-71 -30 -175 -104 -244 -174
-192 -195 -421 -671 -492 -1021 -34 -170 -32 -395 5 -534 121 -450 544 -767
1210 -907 146 -31 161 -32 392 -32 259 0 328 8 538 63 l105 27 46 -23 c80 -41
220 -82 318 -95 247 -31 548 82 818 307 97 80 263 253 365 379 138 171 116
155 233 167 179 17 372 -14 543 -90 145 -64 248 -140 436 -323 194 -188 220
-204 288 -172 99 47 161 247 172 559 19 518 -136 1106 -392 1489 -76 114 -232
276 -333 346 l-79 55 5 245 c7 336 -16 517 -94 749 -200 598 -681 936 -1474
1036 -147 19 -518 27 -643 15z m1023 -1191 c60 -27 88 -54 116 -114 44 -92 27
-174 -50 -251 -98 -99 -223 -94 -316 12 -42 49 -60 92 -60 149 0 89 48 160
135 201 61 29 116 30 175 3z m-1359 -37 c98 -51 147 -158 118 -260 -17 -61
-96 -142 -155 -160 -60 -17 -93 -15 -149 12 -188 88 -178 336 17 421 52 23
109 18 169 -13z m440 -322 c5 0 36 -25 70 -56 70 -64 79 -64 151 2 70 65 120
72 131 17 5 -25 -4 -37 -71 -106 l-77 -79 -54 6 c-96 11 -162 51 -198 120 -13
24 -13 36 -3 68 8 29 15 38 26 34 9 -3 20 -6 25 -6z m-831 -151 c134 -57 42
-149 -149 -149 -192 0 -278 85 -152 150 66 34 220 34 301 -1z m2239 5 c48 -20
71 -43 71 -69 0 -50 -86 -85 -210 -85 -192 0 -277 85 -151 150 61 31 219 33
290 4z"/>
</g>
</svg>
