<svg xmlns="http://www.w3.org/2000/svg" viewBox="0 0 2764.97 562.74"><defs><style>.cls-1{fill:#e1fcff;}</style></defs><title>blue cloud</title><g id="Layer_2" data-name="Layer 2"><g id="OBJECTS"><path class="cls-1" d="M2632.77,146.25c3.93-19.66-2-33.42-13.76-45.22-33.43-43.25-96.34-21.63-116,23.6,2.94-6.78-34.94-45.34-40.41-50.92a241.86,241.86,0,0,0-51.2-39.55c-39.56-23-84.18-36.35-130.18-33.86-42,2.27-88,11.16-125.25,31.57a203.26,203.26,0,0,0-46.61,35.39c-4.16,4.21-38.41,40.56-35,45.57-21.63-31.46-59-39.32-90.44-29.49-13.77,5.9-17.7,23.59-23.6,39.32-10.48-25.56-40.63-36-82.57-28.84-50,18.08-60.13,50-57.87,80-4.11-11.06-18.28-24.77-23.14-30.68-12.19-14.82-25.14-28.85-40-41.12-32.54-26.93-72.89-39.92-114.51-43.81-34-3.18-67.88,1.3-98.06,17.86-10,5.51-78.2,52.83-71.48,66.27-13.76-27.53-39.32-39.32-66.85-29.49-12.89,5-19.77,17.42-23.44,31.83-3.66-14.41-10.54-26.87-23.43-31.83-27.53-9.83-53.09,2-66.85,29.49,6.72-13.44-61.43-60.76-71.48-66.27-30.18-16.56-64.07-21-98.06-17.86-41.62,3.89-82,16.88-114.51,43.81-14.82,12.27-27.77,26.3-40,41.12-4.86,5.91-19,19.62-23.14,30.68,2.25-30-7.86-61.9-57.87-80-41.94-7.21-72.09,3.28-82.57,28.84-5.9-15.73-9.84-33.42-23.6-39.32-31.46-9.83-68.81-2-90.44,29.49,3.45-5-30.8-41.36-35-45.57A203.1,203.1,0,0,0,609,31.87C571.78,11.46,525.74,2.57,483.74.3c-46-2.49-90.61,10.81-130.17,33.86a242.17,242.17,0,0,0-51.21,39.55C296.9,79.29,259,117.85,262,124.63,242.3,79.4,179.38,57.78,146,101c-11.8,11.8-17.69,25.56-13.76,45.22C98.8,116,42.25,103.84,0,123.18V562.74H2765V123.18C2722.72,103.84,2666.17,116,2632.77,146.25Z"/></g></g></svg>