<?xml version="1.0" encoding="utf-8"?>
<!-- Generator: Adobe Illustrator 23.0.3, SVG Export Plug-In . SVG Version: 6.00 Build 0)  -->
<svg version="1.1" id="Layer_1" xmlns="http://www.w3.org/2000/svg" xmlns:xlink="http://www.w3.org/1999/xlink" x="0px" y="0px"
	 viewBox="0 0 578.5 985.5" style="enable-background:new 0 0 578.5 985.5;" xml:space="preserve">
<style type="text/css">
	.st0{display:none;fill:#E2E2E0;}
	.st1{display:none;fill:#24BA6F;enable-background:new    ;}
	.st2{font-family:'BebasNeue-Regular';}
	.st3{font-size:404.6899px;}
	.st4{fill:#E5370E;}
	.st5{fill:#C63817;}
	.st6{fill:#FF9901;}
	.st7{opacity:0.75;}
	.st8{fill:#E07E1E;}
	.st9{fill:#24BA6F;}
	.st10{fill:#23CC73;}
	.st11{fill:#FFFFFF;}
	.st12{fill:#E85B0D;}
	.st13{fill:none;stroke:#FFFFFF;stroke-width:10;stroke-linecap:round;stroke-miterlimit:10;}
	.st14{enable-background:new    ;}
	.st15{fill:#8CC63F;}
</style>
<ellipse class="st0" cx="291.8" cy="729.4" rx="290" ry="87"/>
<text transform="matrix(1 0 0 1 -288.1656 1114.375)" class="st1 st2 st3">Plan eat</text>
<g>
	<path class="st4" d="M34.2,552c9.7-20.2,25.2-52.9,57.5-65c31.8-11.9,63.6,2.1,77.5,7.5c123.9,47.8,226.8-56.6,312.4-7.5
		c88.9,51,94.7,230.4,62.5,244.9c-16.4,7.4-29.2-34-77.5-52.5c-101.7-38.9-178.6,93.6-317.4,75c-11.5-1.5-103-15.1-130-80
		C-1,625.7,24.9,571.4,34.2,552z"/>
	<path class="st5" d="M406.8,673.9c6.8-1.4,12.6-1.9,17-2c7.2-0.2,12.7,0.5,17,1c4,0.5,9.4,1.2,16,3c9.7,2.6,16.5,6.2,22,9
		c5.2,2.7,11.6,6,19,12c4.9,3.9,9.1,8.1,17,16c3.6,3.6,5.4,5.4,6,6c4.5,4.7,5.6,6.4,9,9c0.6,0.5,3.2,2.5,7,4c1.9,0.8,2.9,1.2,4,1
		c3.2-0.5,4.9-5.6,6-9c4.9-15.4,6-24,6-24c1.1-8.3,1.7-12.6,2-20c1-23.9-2-45.5-3-52c-1.7-11.1-4.8-31.2-14-56c0,0-9.7-26.3-26-49
		c-2.2-3.1-5-6-5-6c-2.8-2.9-4.4-4.6-7-6c-4.8-2.6-9.7-2.2-11-2c-5.7,0.7-10,4-13,7c-17,16.8-38,60-38,60
		c-18.6,38.1-24.8,40.7-29,62C405.9,652.6,406.1,665.2,406.8,673.9z"/>
	<path class="st5" d="M96.8,516.9c-1.8-0.8-6.1-2.9-12-3c-8.6-0.1-15.2,4.1-18,6c-8.3,5.5-15,14.4-23,34c-2.4,5.8-8.5,21.6-14,49
		c-3.9,19.2-4.9,31.5-6,45c-1.6,19.6-1.2,31.8,5,43c2.2,4,5.2,7.9,6,9c4.1,5.4,9.9,11.6,20,19c2.7,2,14.7,10.5,35,19
		c3.8,1.6,20.2,8.3,43,13c21.4,4.4,37.7,4.9,42,5c5.6,0.1,14.4,0.3,26-1c8.2-0.9,24-2.8,42-10c14.7-5.9,26.5-10.6,33-19
		c22.4-28.8-20.6-95.5-28-107c-37.5-58.2-90.5-84.5-108-90C128.9,525.5,112.1,524,96.8,516.9z"/>
	<g>
		<g>
			<g>
				<g>
					<path class="st6" d="M293.2,280.7c48.5,1.3,104.7,12.7,141.7,46.2c21.3,19.3,35.1,46,42,74c6.8,28,7,57.2,3.8,85.8
						c-9.2,84.2-47.2,165-106.2,225.7c-21.4,22.1-47.3,40.6-78.3,45.5c-33.6,5.3-63.8-12.5-87.9-34.4
						c-37.6-34.2-64.3-78.9-84.7-125.4C90.4,522.6,89.2,471,89.9,450.7c0-1.2,0.1-1.9,0.1-3c2.4-51.8,26-116.5,78.4-141.5
						C207.2,287.6,250.3,279.5,293.2,280.7z"/>
				</g>
			</g>
			<g class="st7">
				<g>
					<path class="st6" d="M293.2,280.7c48.5,1.3,104.7,12.7,141.7,46.2c21.3,19.3,35.1,46,42,74c6.8,28,7,57.2,3.8,85.8
						c-9.2,84.2-47.2,165-106.2,225.7c-21.4,22.1-47.3,40.6-78.3,45.5c-33.6,5.3-63.8-12.5-87.9-34.4
						c-37.6-34.2-64.3-78.9-84.7-125.4C90.4,522.6,89.2,471,89.9,450.7c0-1.2,0.1-1.9,0.1-3c2.4-51.8,26-116.5,78.4-141.5
						C207.2,287.6,250.3,279.5,293.2,280.7z"/>
				</g>
			</g>
		</g>
		<g class="st7">
			<g>
				<g>
					<path class="st6" d="M293.2,280.7c48.5,1.3,104.7,12.7,141.7,46.2c21.3,19.3,35.1,46,42,74c6.8,28,7,57.2,3.8,85.8
						c-9.2,84.2-47.2,165-106.2,225.7c-21.4,22.1-47.3,40.6-78.3,45.5c-33.6,5.3-63.8-12.5-87.9-34.4
						c-37.6-34.2-64.3-78.9-84.7-125.4C90.4,522.6,89.2,471,89.9,450.7c0-1.2,0.1-1.9,0.1-3c2.4-51.8,26-116.5,78.4-141.5
						C207.2,287.6,250.3,279.5,293.2,280.7z"/>
				</g>
			</g>
			<g class="st7">
				<g>
					<path class="st6" d="M293.2,280.7c48.5,1.3,104.7,12.7,141.7,46.2c21.3,19.3,35.1,46,42,74c6.8,28,7,57.2,3.8,85.8
						c-9.2,84.2-47.2,165-106.2,225.7c-21.4,22.1-47.3,40.6-78.3,45.5c-33.6,5.3-63.8-12.5-87.9-34.4
						c-37.6-34.2-64.3-78.9-84.7-125.4C90.4,522.6,89.2,471,89.9,450.7c0-1.2,0.1-1.9,0.1-3c2.4-51.8,26-116.5,78.4-141.5
						C207.2,287.6,250.3,279.5,293.2,280.7z"/>
				</g>
			</g>
		</g>
	</g>
	<g>
		<g>
			<path class="st8" d="M149.8,645.9c3.3,0.9,8,2.1,13.6,3.2c10.5,2,18.5,2.6,26.7,3.2c12.2,0.9,18.3,1.3,22.3,0.8
				c2-0.2,4.8-0.7,4.9,0c0.2,1.1-6.2,4.5-12,6.3c-3,1-6.1,1.6-18,1.6c-18.5,0-23.6-1.5-26.1-2.4c-4.4-1.5-6.8-3.3-9.2-4.7l-4.7-7.9
				L149.8,645.9L149.8,645.9z"/>
		</g>
	</g>
	<ellipse transform="matrix(0.866 -0.5 0.5 0.866 -32.8532 131.6375)" class="st9" cx="229.2" cy="127.1" rx="72.5" ry="125"/>
	
		<ellipse transform="matrix(0.4422 -0.8969 0.8969 0.4422 65.8998 397.7578)" class="st10" cx="352.7" cy="145.9" rx="78.6" ry="49.2"/>
	<g>
		<path class="st11" d="M354.2,399.2c11.9-0.1,22.3,10.1,22.5,22c0.2,11.8-10.2,23-21.6,23.2c-11.6,0.2-23.4-11.5-23.4-23.1
			S342.3,399.3,354.2,399.2z"/>
		<path class="st11" d="M239.5,424.5c0.1,12.3-10.6,23-23,23c-11.4,0-21.9-11.1-21.8-23c0.1-11.5,11-22.3,22.5-22.4
			C228.9,402.1,239.4,412.6,239.5,424.5z"/>
	</g>
	<g>
		<g>
			<ellipse class="st12" cx="172.9" cy="458.2" rx="21.2" ry="8.7"/>
		</g>
	</g>
	<g>
		<g>
			<ellipse class="st12" cx="397.9" cy="458.2" rx="21.2" ry="8.7"/>
		</g>
	</g>
	<ellipse class="st4" cx="109.2" cy="502" rx="32.5" ry="17.5"/>
	<path class="st4" d="M491.6,499.5c0,6.2-7.9,11.2-10.7,13c-8.6,5.4-17.5,4.8-21.8,4.5c-13.4-1-32.5-8.3-32.5-17.5
		c0-9.7,14.5-17.5,32.5-17.5S491.6,489.8,491.6,499.5z"/>
	<g>
		<g>
			<path class="st8" d="M109.6,561.9c5,1.2,12,2.6,20.4,4c15.8,2.6,27.8,3.3,40,4c18.3,1.1,27.4,1.6,33.5,1c3-0.3,7.2-0.9,7.3,0
				c0.3,1.3-9.3,5.7-18,8c-4.5,1.2-9.2,2-26.9,2c-27.8,0-35.5-1.9-39.2-3c-6.6-1.9-10.3-4.2-13.9-6l-4.1-10H109.6z"/>
		</g>
	</g>
	<path class="st13" d="M269.8,459.9c-0.7,1.3,1.1,5.3,8,11c0.6,0.5,7.8,7.2,17,5c7.7-1.9,17.5-8.2,18-17"/>
	<g>
		<g>
			<path class="st8" d="M446,602.9c-4.9,1.2-11.8,2.6-20,4c-15.5,2.6-27.3,3.3-39.2,4c-17.9,1.1-26.9,1.6-32.8,1c-3-0.3-7-0.9-7.2,0
				c-0.2,1.3,9.1,5.7,17.6,8c4.4,1.2,9,2,26.4,2c27.2,0,34.8-1.9,38.4-3c6.5-1.9,11.7-4.2,15.2-6l4.4-11L446,602.9z"/>
		</g>
	</g>
</g>
<g class="st14">
	<path class="st15" d="M8,819.3h32.7c11,0,19.3,3,24.8,8.9c5.5,5.9,8.3,14.6,8.3,26v13.9c0,11.4-2.8,20.1-8.3,26
		c-5.5,5.9-13.8,8.9-24.8,8.9H30.2v57.5H8V819.3z M40.7,882.9c3.6,0,6.4-1,8.2-3c1.8-2,2.7-5.4,2.7-10.3v-16.7
		c0-4.8-0.9-8.3-2.7-10.3c-1.8-2-4.5-3-8.2-3H30.2v43.4H40.7z"/>
	<path class="st15" d="M85.9,819.3h22.2v121.1h36.5v20.2H85.9V819.3z"/>
	<path class="st15" d="M173.3,819.3h30.1l23,141.3h-22.2l-4-28v0.4h-25.2l-4,27.6h-20.6L173.3,819.3z M197.5,913.8l-9.9-69.8h-0.4
		l-9.7,69.8H197.5z"/>
	<path class="st15" d="M237,819.3h27.8l21.6,84.6h0.4v-84.6h19.8v141.3h-22.8l-26.6-103.1h-0.4v103.1H237V819.3z"/>
	<path class="st15" d="M355.5,819.3H416v20.2h-38.3v37.3h30.5V897h-30.5v43.4H416v20.2h-60.5V819.3z"/>
	<path class="st15" d="M445.9,819.3H476l23,141.3h-22.2l-4-28v0.4h-25.2l-4,27.6h-20.6L445.9,819.3z M470.1,913.8l-9.9-69.8h-0.4
		l-9.7,69.8H470.1z"/>
	<path class="st15" d="M517.7,839.5h-23.2v-20.2h68.6v20.2h-23.2v121.1h-22.2V839.5z"/>
</g>
</svg>
