<?xml version="1.0" encoding="utf-8"?>
<!-- Generator: Adobe Illustrator 23.0.3, SVG Export Plug-In . SVG Version: 6.00 Build 0)  -->
<svg version="1.1" id="Layer_1" xmlns="http://www.w3.org/2000/svg" xmlns:xlink="http://www.w3.org/1999/xlink" x="0px" y="0px"
	 viewBox="0 0 550.3 746" style="enable-background:new 0 0 550.3 746;" xml:space="preserve">
<style type="text/css">
	.st0{display:none;fill:#E2E2E0;}
	.st1{fill:#E5370E;}
	.st2{fill:#C63817;}
	.st3{fill:#FF9901;}
	.st4{filter:url(#Adobe_OpacityMaskFilter);}
	.st5{opacity:0.75;mask:url(#SVGID_1_);}
	.st6{filter:url(#Adobe_OpacityMaskFilter_1_);}
	.st7{opacity:0.75;mask:url(#SVGID_2_);}
	.st8{filter:url(#Adobe_OpacityMaskFilter_2_);}
	.st9{opacity:0.75;}
	.st10{fill:#E07E1E;}
	.st11{fill:#24BA6F;}
	.st12{fill:#23CC73;}
	.st13{fill:#FFFFFF;}
	.st14{fill:#E85B0D;}
	.st15{fill:none;stroke:#FFFFFF;stroke-width:10;stroke-linecap:round;stroke-miterlimit:10;}
</style>
<ellipse class="st0" cx="280.1" cy="716.5" rx="290" ry="87"/>
<text transform="matrix(1 0 0 1 -299.9048 1101.4619)" style="display:none;fill:#24BA6F; font-family:'BebasNeue-Regular'; font-size:404.6899px;">Plan eat</text>
<g>
	<path class="st1" d="M22.5,539.1c9.7-20.2,25.2-52.9,57.5-65c31.8-11.9,63.6,2.1,77.5,7.5c123.9,47.8,226.8-56.6,312.4-7.5
		c88.9,51,94.7,230.4,62.5,244.9c-16.4,7.4-29.2-34-77.5-52.5c-101.7-38.9-178.6,93.6-317.4,75c-11.5-1.5-103-15.1-130-80
		C-12.7,612.8,13.2,558.5,22.5,539.1z"/>
	<path class="st2" d="M395.1,661c6.8-1.4,12.6-1.9,17-2c7.2-0.2,12.7,0.5,17,1c4,0.5,9.4,1.2,16,3c9.7,2.6,16.5,6.2,22,9
		c5.2,2.7,11.6,6,19,12c4.9,3.9,9.1,8.1,17,16c3.6,3.6,5.4,5.4,6,6c4.5,4.7,5.6,6.4,9,9c0.6,0.5,3.2,2.5,7,4c1.9,0.8,2.9,1.2,4,1
		c3.2-0.5,4.9-5.6,6-9c4.9-15.4,6-24,6-24c1.1-8.3,1.7-12.6,2-20c1-23.9-2-45.5-3-52c-1.7-11.1-4.8-31.2-14-56c0,0-9.7-26.3-26-49
		c-2.2-3.1-5-6-5-6c-2.8-2.9-4.4-4.6-7-6c-4.8-2.6-9.7-2.2-11-2c-5.7,0.7-10,4-13,7c-17,16.8-38,60-38,60
		c-18.6,38.1-24.8,40.7-29,62C394.2,639.7,394.4,652.3,395.1,661z"/>
	<path class="st2" d="M85.1,504c-1.8-0.8-6.1-2.9-12-3c-8.6-0.1-15.2,4.1-18,6c-8.3,5.5-15,14.4-23,34c-2.4,5.8-8.5,21.6-14,49
		c-3.9,19.2-4.9,31.5-6,45c-1.6,19.6-1.2,31.8,5,43c2.2,4,5.2,7.9,6,9c4.1,5.4,9.9,11.6,20,19c2.7,2,14.7,10.5,35,19
		c3.8,1.6,20.2,8.3,43,13c21.4,4.4,37.7,4.9,42,5c5.6,0.1,14.4,0.3,26-1c8.2-0.9,24-2.8,42-10c14.7-5.9,26.5-10.6,33-19
		c22.4-28.8-20.6-95.5-28-107c-37.5-58.2-90.5-84.5-108-90C117.2,512.6,100.4,511.1,85.1,504z"/>
	<g>
		<g>
			<g>
				<g>
					<path class="st3" d="M281.5,267.8c48.5,1.3,104.7,12.7,141.7,46.2c21.3,19.3,35.1,46,42,74c6.8,28,7,57.2,3.8,85.8
						c-9.2,84.2-47.2,165-106.2,225.7c-21.4,22.1-47.3,40.6-78.3,45.5c-33.6,5.3-63.8-12.5-87.9-34.4
						c-37.6-34.2-64.3-78.9-84.7-125.4c-33.2-75.5-34.4-127.1-33.7-147.4c0-1.2,0.1-1.9,0.1-3c2.4-51.8,26-116.5,78.4-141.5
						C195.5,274.7,238.6,266.6,281.5,267.8z"/>
				</g>
			</g>
			<defs>
				<filter id="Adobe_OpacityMaskFilter" filterUnits="userSpaceOnUse" x="78" y="267.7" width="393" height="478.3">
					
						<feColorMatrix  type="matrix" values="-1 0 0 0 1  0 -1 0 0 1  0 0 -1 0 1  0 0 0 1 0" color-interpolation-filters="sRGB" result="source"/>
				</filter>
			</defs>
			<mask maskUnits="userSpaceOnUse" x="78" y="267.7" width="393" height="478.3" id="SVGID_1_">
				<g class="st4">
					
						<image style="overflow:visible;" width="398" height="483" xlink:href="5C15B35E.jpg"  transform="matrix(1 0 0 1 75.0952 265)">
					</image>
				</g>
			</mask>
			<g class="st5">
				<g>
					<path class="st3" d="M281.5,267.8c48.5,1.3,104.7,12.7,141.7,46.2c21.3,19.3,35.1,46,42,74c6.8,28,7,57.2,3.8,85.8
						c-9.2,84.2-47.2,165-106.2,225.7c-21.4,22.1-47.3,40.6-78.3,45.5c-33.6,5.3-63.8-12.5-87.9-34.4
						c-37.6-34.2-64.3-78.9-84.7-125.4c-33.2-75.5-34.4-127.1-33.7-147.4c0-1.2,0.1-1.9,0.1-3c2.4-51.8,26-116.5,78.4-141.5
						C195.5,274.7,238.6,266.6,281.5,267.8z"/>
				</g>
			</g>
		</g>
		<defs>
			<filter id="Adobe_OpacityMaskFilter_1_" filterUnits="userSpaceOnUse" x="78" y="267.7" width="393" height="478.3">
				
					<feColorMatrix  type="matrix" values="-1 0 0 0 1  0 -1 0 0 1  0 0 -1 0 1  0 0 0 1 0" color-interpolation-filters="sRGB" result="source"/>
			</filter>
		</defs>
		<mask maskUnits="userSpaceOnUse" x="78" y="267.7" width="393" height="478.3" id="SVGID_2_">
			<g class="st6">
				
					<image style="overflow:visible;" width="398" height="483" xlink:href="5C15B358.jpg"  transform="matrix(1 0 0 1 75.0952 265)">
				</image>
			</g>
		</mask>
		<g class="st7">
			<g>
				<g>
					<path class="st3" d="M281.5,267.8c48.5,1.3,104.7,12.7,141.7,46.2c21.3,19.3,35.1,46,42,74c6.8,28,7,57.2,3.8,85.8
						c-9.2,84.2-47.2,165-106.2,225.7c-21.4,22.1-47.3,40.6-78.3,45.5c-33.6,5.3-63.8-12.5-87.9-34.4
						c-37.6-34.2-64.3-78.9-84.7-125.4c-33.2-75.5-34.4-127.1-33.7-147.4c0-1.2,0.1-1.9,0.1-3c2.4-51.8,26-116.5,78.4-141.5
						C195.5,274.7,238.6,266.6,281.5,267.8z"/>
				</g>
			</g>
			<defs>
				<filter id="Adobe_OpacityMaskFilter_2_" filterUnits="userSpaceOnUse" x="78" y="267.7" width="393" height="478.3">
					
						<feColorMatrix  type="matrix" values="-1 0 0 0 1  0 -1 0 0 1  0 0 -1 0 1  0 0 0 1 0" color-interpolation-filters="sRGB" result="source"/>
				</filter>
			</defs>
			<mask maskUnits="userSpaceOnUse" x="78" y="267.7" width="393" height="478.3" id="SVGID_2_">
				<g class="st8">
					
						<image style="overflow:visible;" width="398" height="483" xlink:href="5C15B357.jpg"  transform="matrix(1 0 0 1 75.0952 265)">
					</image>
				</g>
			</mask>
			<g class="st9">
				<g>
					<path class="st3" d="M281.5,267.8c48.5,1.3,104.7,12.7,141.7,46.2c21.3,19.3,35.1,46,42,74c6.8,28,7,57.2,3.8,85.8
						c-9.2,84.2-47.2,165-106.2,225.7c-21.4,22.1-47.3,40.6-78.3,45.5c-33.6,5.3-63.8-12.5-87.9-34.4
						c-37.6-34.2-64.3-78.9-84.7-125.4c-33.2-75.5-34.4-127.1-33.7-147.4c0-1.2,0.1-1.9,0.1-3c2.4-51.8,26-116.5,78.4-141.5
						C195.5,274.7,238.6,266.6,281.5,267.8z"/>
				</g>
			</g>
		</g>
	</g>
	<g>
		
			<image style="overflow:visible;opacity:0.25;" width="83" height="27" xlink:href="5C15B36E.png"  transform="matrix(1 0 0 1 131.0952 629)">
		</image>
		<g>
			<path class="st10" d="M138.1,633c3.3,0.9,8,2.1,13.6,3.2c10.5,2,18.5,2.6,26.7,3.2c12.2,0.9,18.3,1.3,22.3,0.8
				c2-0.2,4.8-0.7,4.9,0c0.2,1.1-6.2,4.5-12,6.3c-3,1-6.1,1.6-18,1.6c-18.5,0-23.6-1.5-26.1-2.4c-4.4-1.5-6.8-3.3-9.2-4.7l-4.7-7.9
				H138.1z"/>
		</g>
	</g>
	<ellipse transform="matrix(0.866 -0.5 0.5 0.866 -27.9471 124.0286)" class="st11" cx="217.5" cy="114.2" rx="72.5" ry="125"/>
	
		<ellipse transform="matrix(0.4422 -0.8969 0.8969 0.4422 70.9893 380.0219)" class="st12" cx="341" cy="132.9" rx="78.6" ry="49.2"/>
	<g>
		<path class="st13" d="M342.5,386.3c11.9-0.1,22.3,10.1,22.5,22c0.2,11.8-10.2,23-21.6,23.2c-11.6,0.2-23.4-11.5-23.4-23.1
			C320,396.8,330.6,386.4,342.5,386.3z"/>
		<path class="st13" d="M227.8,411.6c0.1,12.3-10.6,23-23,23c-11.4,0-21.9-11.1-21.8-23c0.1-11.5,11-22.3,22.5-22.4
			C217.2,389.2,227.7,399.7,227.8,411.6z"/>
	</g>
	<g>
		<image style="overflow:visible;" width="56" height="31" xlink:href="5C15B36F.png"  transform="matrix(1 0 0 1 135.0952 432)">
		</image>
		<g>
			<ellipse class="st14" cx="161.2" cy="445.3" rx="21.2" ry="8.7"/>
		</g>
	</g>
	<g>
		<image style="overflow:visible;" width="56" height="31" xlink:href="5C15B372.png"  transform="matrix(1 0 0 1 360.0952 432)">
		</image>
		<g>
			<ellipse class="st14" cx="386.2" cy="445.3" rx="21.2" ry="8.7"/>
		</g>
	</g>
	<ellipse class="st1" cx="97.5" cy="489.1" rx="32.5" ry="17.5"/>
	<path class="st1" d="M479.9,486.6c0,6.2-7.9,11.2-10.7,13c-8.6,5.4-17.5,4.8-21.8,4.5c-13.4-1-32.5-8.3-32.5-17.5
		c0-9.7,14.5-17.5,32.5-17.5S479.9,476.9,479.9,486.6z"/>
	<g>
		
			<image style="overflow:visible;opacity:0.25;" width="115" height="31" xlink:href="5C15B373.png"  transform="matrix(1 0 0 1 92.0952 545)">
		</image>
		<g>
			<path class="st10" d="M97.9,549c5,1.2,12,2.6,20.4,4c15.8,2.6,27.8,3.3,40,4c18.3,1.1,27.4,1.6,33.5,1c3-0.3,7.2-0.9,7.3,0
				c0.3,1.3-9.3,5.7-18,8c-4.5,1.2-9.2,2-26.9,2c-27.8,0-35.5-1.9-39.2-3c-6.6-1.9-10.3-4.2-13.9-6l-4.1-10H97.9z"/>
		</g>
	</g>
	<path class="st15" d="M258.1,447c-0.7,1.3,1.1,5.3,8,11c0.6,0.5,7.8,7.2,17,5c7.7-1.9,17.5-8.2,18-17"/>
	<g>
		
			<image style="overflow:visible;opacity:0.25;" width="114" height="32" xlink:href="5C15B374.png"  transform="matrix(1 0 0 1 331.0952 585)">
		</image>
		<g>
			<path class="st10" d="M434.3,590c-4.9,1.2-11.8,2.6-20,4c-15.5,2.6-27.3,3.3-39.2,4c-17.9,1.1-26.9,1.6-32.8,1
				c-3-0.3-7-0.9-7.2,0c-0.2,1.3,9.1,5.7,17.6,8c4.4,1.2,9,2,26.4,2c27.2,0,34.8-1.9,38.4-3c6.5-1.9,11.7-4.2,15.2-6l4.4-11
				L434.3,590z"/>
		</g>
	</g>
</g>
</svg>
