<svg height="512pt" viewBox="-92 0 511 512" width="512pt" xmlns="http://www.w3.org/2000/svg"><path d="m285.40625 7.605469h-241.929688c-19.535156 0-35.375 15.835937-35.375 35.375v426.039062c0 19.539063 15.839844 35.375 35.375 35.375h241.929688c19.539062 0 35.375-15.835937 35.375-35.375v-426.039062c0-19.539063-15.835938-35.375-35.375-35.375zm0 0" fill="#4c5275"/><path d="m8.105469 64.203125h312.671875v385.613281h-312.671875zm0 0" fill="#e6e6e6"/><path d="m197.898438 43.613281h-66.914063c-4.199219 0-7.601563-3.40625-7.601563-7.605469 0-4.199218 3.402344-7.601562 7.601563-7.601562h66.914063c4.199218 0 7.601562 3.402344 7.601562 7.601562 0 4.199219-3.402344 7.605469-7.601562 7.605469zm0 0" fill="#393f5b"/><g fill="#5bce5b"><path d="m320.78125 64.207031v56.605469h-95.199219l-10.160156-56.605469zm0 0"/><path d="m234.605469 171.109375h86.175781v278.710937h-36.144531zm0 0"/><path d="m8.105469 64.207031v56.605469h95.199219l10.160156-56.605469zm0 0"/><path d="m94.28125 171.109375h-86.175781v278.710937h36.140625zm0 0"/></g><path d="m285.40625 512h-241.925781c-23.699219 0-42.980469-19.28125-42.980469-42.980469v-426.039062c0-23.699219 19.28125-42.980469 42.980469-42.980469h241.925781c23.699219 0 42.980469 19.28125 42.980469 42.980469v426.039062c0 23.699219-19.28125 42.980469-42.980469 42.980469zm-241.925781-496.792969c-15.316407 0-27.773438 12.457031-27.773438 27.773438v426.039062c0 15.316407 12.457031 27.773438 27.773438 27.773438h241.925781c15.3125 0 27.769531-12.457031 27.769531-27.773438v-426.039062c0-15.316407-12.457031-27.773438-27.769531-27.773438zm0 0" fill="#4c5275"/><path d="m164.441406 417.476562h44.609375l-29.402343-122.675781h29.402343l-44.609375-60.832031-44.609375 60.832031h29.402344l-29.402344 122.675781zm0 0" fill="#ff5543"/></svg>