<svg xmlns="http://www.w3.org/2000/svg" viewBox="0 0 550.3 745.98"><defs><style>.cls-1{fill:#e85b0d;}.cls-2{fill:#f39124;}.cls-3{fill:#24ba6f;}.cls-4{fill:#23cc73;}.cls-5{fill:#fff;}</style></defs><title>logo-big</title><g id="Laag_2" data-name="Laag 2"><g id="Layer_1" data-name="Layer 1"><path class="cls-1" d="M22.51,539.06c9.67-20.25,25.24-52.87,57.49-65,31.8-11.95,63.6,2.14,77.48,7.49,123.9,47.83,226.77-56.64,312.42-7.49,88.89,51,94.69,230.37,62.49,244.94-16.4,7.42-29.2-34-77.48-52.49-101.68-38.93-178.61,93.61-317.42,75-11.5-1.54-103-15.08-130-80C-12.69,612.81,13.22,558.53,22.51,539.06Z"/><path class="cls-2" d="M281.55,267.8C330,269.15,386.21,280.48,423.22,314c21.31,19.34,35.14,46,42,74s6.95,57.19,3.82,85.8A387.39,387.39,0,0,1,362.8,699.55c-21.43,22.09-47.27,40.64-78.3,45.5-33.62,5.27-63.78-12.47-87.94-34.4-37.63-34.16-64.28-78.86-84.71-125.4C78.7,509.72,77.48,458.13,78.12,437.85c0-1.19.07-1.94.12-3,2.44-51.79,26-116.49,78.39-141.51C195.52,274.71,238.63,266.61,281.55,267.8Z"/><ellipse class="cls-3" cx="217.47" cy="114.16" rx="72.48" ry="124.97" transform="translate(-27.95 124.03) rotate(-30)"/><ellipse class="cls-4" cx="341.03" cy="132.94" rx="78.62" ry="49.19" transform="translate(70.99 380.02) rotate(-63.75)"/><path class="cls-5" d="M342.54,386.32c11.92-.08,22.29,10.09,22.48,22,.18,11.78-10.24,23-21.57,23.24-11.57.23-23.41-11.46-23.41-23.1S330.61,386.4,342.54,386.32Z"/><path class="cls-5" d="M227.77,411.64c.08,12.33-10.61,23-23,23-11.38-.05-21.86-11.12-21.75-23,.11-11.48,11-22.31,22.53-22.37C217.24,389.2,227.68,399.72,227.77,411.64Z"/><path class="cls-5" d="M279.15,445.59c-15-.29-22.23-5-25.48-14.72-.68-2,1.18-4.91,1.86-7.4,2.39.83,5.58.95,7,2.6,10.57,11.91,11.22,11.9,23-.14,1.55-1.58,4.81-1.48,7.28-2.16.58,2.56,2.51,6.39,1.5,7.47C288.85,437.18,282.59,442.44,279.15,445.59Z"/><ellipse class="cls-5" cx="161.23" cy="445.33" rx="21.24" ry="8.75"/><ellipse class="cls-5" cx="386.18" cy="445.33" rx="21.24" ry="8.75"/><ellipse class="cls-1" cx="97.5" cy="489.07" rx="32.49" ry="17.5"/><ellipse class="cls-1" cx="447.41" cy="486.57" rx="32.49" ry="17.5"/></g></g></svg>