<svg xmlns="http://www.w3.org/2000/svg" viewBox="0 0 1113.27 1101.46"><defs><style>.cls-1{fill:#24ba6f;}.cls-2{fill:#e85b0d;}.cls-3{fill:#f39124;}.cls-4{fill:#23cc73;}.cls-5{fill:#fff;}</style></defs><title>logo_1</title><g id="Laag_2" data-name="Laag 2"><g id="Layer_1" data-name="Layer 1"><path class="cls-1" d="M0,818.18H65.56c44.52,0,66.37,24.68,66.37,70v27.92c0,45.33-21.85,70-66.37,70h-21v115.34H0ZM65.56,945.66c14.17,0,21.85-6.48,21.85-26.71V885.36c0-20.24-7.68-26.71-21.85-26.71h-21v87Z"/><path class="cls-1" d="M156.21,818.18h44.51V1061H274v40.47H156.21Z"/><path class="cls-1" d="M331.43,818.18h60.3l46.14,283.28H393.35l-8.09-56.25v.81H334.67l-8.09,55.44H285.3ZM380,1007.57l-19.83-140h-.81l-19.43,140Z"/><path class="cls-1" d="M459.31,818.18h55.85l43.3,169.56h.81V818.18h39.66v283.28H553.2l-53.42-206.8H499v206.8H459.31Z"/><path class="cls-1" d="M696.85,818.18H818.26v40.47H741.37v74.86h61.11V974H741.37v87h76.89v40.47H696.85Z"/><path class="cls-1" d="M878.15,818.18h60.3l46.13,283.28H940.07l-8.1-56.25v.81H881.39l-8.1,55.44H832Zm48.56,189.39-19.83-140h-.81l-19.42,140Z"/><path class="cls-1" d="M1022.22,858.65H975.68V818.18h137.59v40.47h-46.54v242.81h-44.51Z"/><path class="cls-2" d="M304,539.06c9.67-20.25,25.24-52.87,57.49-65,31.79-11.95,63.6,2.14,77.48,7.49,123.9,47.83,226.76-56.64,312.42-7.49,88.89,51,94.68,230.37,62.49,244.94-16.41,7.42-29.21-34-77.49-52.49-101.67-38.93-178.6,93.61-317.42,75-11.5-1.54-103-15.08-130-80C268.79,612.81,294.71,558.53,304,539.06Z"/><path class="cls-3" d="M563,267.8C611.5,269.15,667.7,280.48,704.7,314c21.32,19.34,35.15,46,42,74s7,57.19,3.82,85.8a387.39,387.39,0,0,1-106.2,225.73c-21.44,22.09-47.27,40.64-78.3,45.5-33.62,5.27-63.78-12.47-87.95-34.4-37.62-34.16-64.28-78.86-84.7-125.4-33.15-75.53-34.38-127.12-33.73-147.4,0-1.19.06-1.94.11-3,2.45-51.79,26-116.49,78.39-141.51C477,274.71,520.12,266.61,563,267.8Z"/><ellipse class="cls-1" cx="498.95" cy="114.16" rx="72.48" ry="124.97" transform="translate(9.76 264.77) rotate(-30)"/><ellipse class="cls-4" cx="622.52" cy="132.94" rx="78.62" ry="49.19" transform="translate(227.99 632.49) rotate(-63.75)"/><path class="cls-5" d="M624,386.32c11.92-.08,22.3,10.09,22.48,22,.19,11.78-10.23,23-21.56,23.24-11.57.23-23.42-11.46-23.41-23.1S612.09,386.4,624,386.32Z"/><path class="cls-5" d="M509.25,411.64c.09,12.33-10.61,23-23,23-11.38-.05-21.87-11.12-21.75-23,.11-11.48,11-22.31,22.53-22.37C498.72,389.2,509.17,399.72,509.25,411.64Z"/><path class="cls-5" d="M560.63,445.59c-15-.29-22.23-5-25.47-14.72-.68-2,1.17-4.91,1.86-7.4,2.39.83,5.57.95,7,2.6,10.56,11.91,11.21,11.9,23-.14,1.55-1.58,4.81-1.48,7.28-2.16.57,2.56,2.5,6.39,1.49,7.47C570.34,437.18,564.08,442.44,560.63,445.59Z"/><ellipse class="cls-5" cx="442.72" cy="445.33" rx="21.24" ry="8.75"/><ellipse class="cls-5" cx="667.66" cy="445.33" rx="21.24" ry="8.75"/><ellipse class="cls-2" cx="378.98" cy="489.07" rx="32.49" ry="17.5"/><ellipse class="cls-2" cx="728.9" cy="486.57" rx="32.49" ry="17.5"/></g></g></svg>