<svg xmlns="http://www.w3.org/2000/svg" viewBox="0 0 1134.72 1182.4"><defs><style>.cls-1{font-size:404.69px;font-family:BebasNeue-Regular, Bebas Neue;}.cls-1,.cls-7{fill:#24ba6f;}.cls-2{letter-spacing:0em;}.cls-3{letter-spacing:0em;}.cls-4{letter-spacing:-0.05em;}.cls-5{fill:#e85b0d;}.cls-6{fill:#f39124;}.cls-8{fill:#23cc73;}.cls-9{fill:#fff;}</style></defs><title>logo</title><g id="Laag_2" data-name="Laag 2"><g id="Layer_1" data-name="Layer 1"><text class="cls-1" transform="translate(0 1101.46)">P<tspan class="cls-2" x="156.21" y="0">l</tspan><tspan class="cls-3" x="297.03" y="0">an e</tspan><tspan class="cls-4" x="843.75" y="0">a</tspan><tspan x="987.41" y="0">t</tspan></text><path class="cls-5" d="M314.72,539.06c9.67-20.25,25.24-52.87,57.49-65,31.8-11.95,63.6,2.14,77.48,7.49,123.9,47.83,226.77-56.64,312.42-7.49C851,525.07,856.8,704.45,824.6,719c-16.4,7.42-29.2-34-77.48-52.49-101.68-38.93-178.61,93.61-317.42,75-11.5-1.54-103-15.08-130-80C279.52,612.81,305.43,558.53,314.72,539.06Z"/><path class="cls-6" d="M573.76,267.8c48.46,1.35,104.66,12.68,141.67,46.23,21.31,19.34,35.14,46,42,74s7,57.19,3.82,85.8A387.39,387.39,0,0,1,655,699.55c-21.43,22.09-47.27,40.64-78.3,45.5-33.62,5.27-63.78-12.47-87.94-34.4-37.63-34.16-64.28-78.86-84.71-125.4-33.15-75.53-34.37-127.12-33.73-147.4,0-1.19.07-1.94.12-3,2.44-51.79,26-116.49,78.39-141.51C487.73,274.71,530.84,266.61,573.76,267.8Z"/><ellipse class="cls-7" cx="509.68" cy="114.16" rx="72.48" ry="124.97" transform="translate(11.2 270.13) rotate(-30)"/><ellipse class="cls-8" cx="633.24" cy="132.94" rx="78.62" ry="49.19" transform="translate(233.98 642.11) rotate(-63.75)"/><path class="cls-9" d="M634.75,386.32c11.92-.08,22.29,10.09,22.48,22,.18,11.78-10.24,23-21.57,23.24-11.57.23-23.41-11.46-23.41-23.1S622.82,386.4,634.75,386.32Z"/><path class="cls-9" d="M520,411.64c.09,12.33-10.61,23-23,23-11.38-.05-21.86-11.12-21.75-23,.11-11.48,11-22.31,22.53-22.37C509.44,389.2,519.89,399.72,520,411.64Z"/><path class="cls-9" d="M571.36,445.59c-15-.29-22.23-5-25.48-14.72-.68-2,1.18-4.91,1.86-7.4,2.39.83,5.58.95,7,2.6,10.57,11.91,11.22,11.9,23-.14,1.55-1.58,4.81-1.48,7.28-2.16.58,2.56,2.51,6.39,1.5,7.47C581.06,437.18,574.8,442.44,571.36,445.59Z"/><ellipse class="cls-9" cx="453.44" cy="445.33" rx="21.24" ry="8.75"/><ellipse class="cls-9" cx="678.38" cy="445.33" rx="21.24" ry="8.75"/><ellipse class="cls-5" cx="389.71" cy="489.07" rx="32.49" ry="17.5"/><ellipse class="cls-5" cx="739.62" cy="486.57" rx="32.49" ry="17.5"/></g></g></svg>