<svg height="512pt" viewBox="0 0 512 512.00002" width="512pt" xmlns="http://www.w3.org/2000/svg"><path d="m512 256.550781c-.296875 141.132813-114.800781 255.449219-256 255.449219-11.054688 0-21.945312-.710938-32.628906-2.074219-4.773438-.609375-8.371094-4.636719-8.371094-9.449219v-171.726562c0-98.722656-80.027344-178.75-178.75-178.75-6.261719 0-10.273438-6.648438-7.378906-12.203125 42.71875-81.917969 128.449218-137.8398438 227.238281-137.796875 142.03125.0585938 256.1875 114.523438 255.890625 256.550781zm0 0" fill="#925b44"/><path d="m477.53125 341.386719-3.957031 3.960937c-3.789063 3.785156-10.644531 3.144532-15.507813-1.453125l-56.035156-52.96875-3.578125 127.082031c-.1875 6.6875-4.582031 11.992188-9.9375 11.992188h-5.601563c-5.355468 0-9.746093-5.300781-9.9375-11.992188l-4.46875-158.765624-98.015624-92.652344-96.601563-96.601563c-1.445313-1.445312-2.042969-3.449219-1.503906-5.058593 3.96875-11.90625 12.820312-20.761719 24.726562-24.730469 1.609375-.539063 3.613281.058593 5.0625 1.503906l96.597657 96.601563 68.367187 72.328124-1.421875-50.632812v-136.613281c0-2.046875.996094-3.882813 2.511719-4.644531 11.226562-5.613282 23.746093-5.613282 34.972656 0 1.519531.757812 2.511719 2.597656 2.511719 4.644531v136.613281l-2.496094 88.796875 72.859375 77.082031c4.601563 4.863282 5.242187 11.722656 1.453125 15.507813zm0 0" fill="#ffe899"/><path d="m367.140625 210.632812.765625 27.128907-86.664062-81.917969-96.601563-96.601562c-1.433594-1.433594-2.046875-3.429688-1.515625-5.027344 1.132812-3.417969 2.683594-6.570313 4.582031-9.441406 2.871094-1.898438 6.023438-3.449219 9.441407-4.582032 1.597656-.53125 3.59375.082032 5.027343 1.515625l96.601563 96.601563zm108.9375 115.246094-72.859375-77.082031-.417969 14.773437 2.917969-103.570312v-136.613281c0-2.03125-.980469-3.875-2.484375-4.628907-3.21875-1.613281-6.546875-2.746093-9.917969-3.4375-3.371094.691407-6.699218 1.824219-9.917968 3.4375-1.503907.753907-2.480469 2.597657-2.480469 4.628907v136.613281l7.597656 270c5.355469 0 9.75-5.300781 9.9375-11.992188l4.152344-147.445312 74.925781 70.824219c3.789062-3.785157 3.148438-10.644531-1.453125-15.507813zm0 0" fill="#fff2b4"/><path d="m202.175781 41.703125 89.527344 89.53125-28.28125 28.285156-89.53125-89.53125c-1.445313-1.445312-2.042969-3.449219-1.503906-5.058593 3.96875-11.90625 12.824219-20.761719 24.726562-24.730469 1.613281-.535157 3.617188.058593 5.0625 1.503906zm201.027344-22.960937c-11.226563-5.609376-23.746094-5.609376-34.972656 0-1.515625.761718-2.511719 2.597656-2.511719 4.644531v126.613281h40v-126.613281c0-2.046875-.996094-3.882813-2.515625-4.644531zm0 0" fill="#fc544d"/><path d="m202.175781 41.703125 89.527344 89.53125-17.535156 17.535156-89.527344-89.527343c-1.449219-1.445313-2.042969-3.449219-1.507813-5.0625 1.136719-3.402344 2.683594-6.546876 4.570313-9.410157 2.863281-1.886719 6.007813-3.433593 9.410156-4.570312 1.613281-.535157 3.617188.058593 5.0625 1.503906zm201.027344-22.960937c-3.210937-1.601563-6.523437-2.734376-9.886719-3.421876-3.359375.6875-6.675781 1.820313-9.882812 3.421876-1.519532.761718-2.515625 2.597656-2.515625 4.644531v126.613281h24.800781v-126.613281c0-2.046875-.996094-3.882813-2.515625-4.644531zm0 0" fill="#fd6c55"/><path d="m315.292969 423.863281c.730469 3.136719-1.648438 6.136719-4.867188 6.136719h-242.179687c-37.242188-40.167969-61.753906-92.304688-67.117188-150h276.65625c2.324219 0 4.34375 1.601562 4.871094 3.863281zm0 0" fill="#dca050"/><path d="m263.714844 270c0 11.046875-8.957032 20-20 20h-71v10c0 11.046875-8.957032 20-20 20-7.921875 0-102.082032 0-110 0-11.046875 0-20-8.953125-20-20v-10h-20.460938c-1.480468-11.125-2.253906-22.472656-2.253906-34 0-43.832031 11.023438-85.085938 30.4375-121.152344 3.386719-2.648437 7.640625-4.234375 12.277344-4.234375 2.472656 0 4.828125.46875 7.015625 1.289063 3.238281-6.675782 10.0625-11.289063 17.984375-11.289063 3.6875 0 7.128906 1.015625 10.097656 2.757813.972656-10.136719 9.507812-18.0625 19.902344-18.0625 10.390625 0 18.925781 7.925781 19.898437 18.0625 2.96875-1.742188 6.410157-2.757813 10.101563-2.757813 7.917968 0 14.742187 4.613281 17.980468 11.289063 2.1875-.820313 4.542969-1.289063 7.019532-1.289063 6.179687 0 11.691406 2.8125 15.355468 7.222657 7.613282-7.132813 16.507813-9.910157 20.253907-6.164063 3.820312 3.816406.867187 12.972656-6.558594 20.675781 6.324219 3.355469 10.640625 9.992188 10.640625 17.652344 0 .039062-.007812.078125-.007812.117188 10.046874 1.0625 17.875 9.558593 17.875 19.882812 0 .308594-.035157.613281-.046876.917969 8.113282 2.550781 14 10.125 14 19.082031 0 .261719-.03125.519531-.039062.777344 8.378906 2.382812 14.527344 10.078125 14.527344 19.222656 0 .21875-.027344.429688-.035156.648438 8.636718 2.210937 15.035156 10.023437 15.035156 19.351562 0 .878906-.078125 1.738281-.1875 2.585938 6.078125 3.429687 10.1875 9.9375 10.1875 17.414062zm-125.386719-170.042969c3.902344-3.90625.738281-13.402343-7.070313-21.214843-7.8125-7.808594-17.308593-10.972657-21.214843-7.070313-3.90625 3.90625-.738281 13.402344 7.070312 21.214844 7.8125 7.808593 17.308594 10.976562 21.214844 7.070312zm0 0" fill="#fde5bd"/><path d="m187.113281 251.257812c-7.808593-7.8125-10.976562-17.308593-7.070312-21.214843s13.402343-.738281 21.214843 7.070312c4.6875 4.691407 7.6875 9.984375 8.503907 14.3125 13.25-4.359375 25.378906-10.253906 35.96875-17.378906-2.074219-1.5625-4.457031-2.738281-7.050781-3.398437.007812-.21875.035156-.429688.035156-.648438 0-9.144531-6.144532-16.839844-14.527344-19.222656.011719-.257813.039062-.515625.039062-.777344 0-8.953125-5.886718-16.53125-14-19.082031.015626-.308594.046876-.609375.046876-.917969 0-10.328125-7.828126-18.820312-17.875-19.882812 0-.039063.007812-.078126.007812-.117188 0-10.953125-8.808594-19.835938-19.722656-19.984375-.320313-10.769531-9.128906-19.402344-19.972656-19.402344-2.472657 0-4.828126.46875-7.015626 1.289063-3.242187-6.675782-10.0625-11.289063-17.984374-11.289063-3.6875 0-7.128907 1.015625-10.097657 2.757813-.972656-10.136719-9.507812-18.0625-19.902343-18.0625-10.390626 0-18.925782 7.925781-19.902344 18.0625-2.964844-1.742188-6.410156-2.757813-10.097656-2.757813-7.917969 0-14.742188 4.613281-17.980469 11.289063-2.1875-.820313-4.546875-1.289063-7.019531-1.289063-4.632813 0-8.886719 1.585938-12.273438 4.234375-3.773438 7.007813-7.222656 14.214844-10.34375 21.597656-.054688 1.179688-.09375 2.363282-.09375 3.554688 0 7.917969 1.246094 15.613281 3.59375 23 6.550781-4.671875 13.242188-6.078125 16.363281-2.957031 3.90625 3.902343.738281 13.402343-7.070312 21.210937-.183594.1875-.375.355469-.5625.53125 5.277343 8.488282 12.109375 16.332032 20.226562 23.332032 3.425781-3.050782 9.949219-5.117188 17.449219-5.117188 11.046875 0 20 4.476562 20 10 0 4.894531-7.035156 8.957031-16.320312 9.824219 22.621093 12.660156 50.785156 20.175781 81.320312 20.175781 13.152344 0 25.867188-1.394531 37.886719-3.992188-1.953125-1.300781-3.910157-2.890624-5.773438-4.75zm-85.855469-90c-7.8125 7.808594-17.308593 10.972657-21.214843 7.070313-3.90625-3.90625-.738281-13.402344 7.070312-21.214844 7.8125-7.808593 17.308594-10.976562 21.214844-7.070312s.738281 13.402343-7.070313 21.214843zm38.699219 47.070313c-3.90625 3.902344-13.402343.738281-21.214843-7.070313-7.808594-7.8125-10.972657-17.308593-7.070313-21.214843 3.90625-3.90625 13.402344-.738281 21.214844 7.070312 7.808593 7.8125 10.976562 17.308594 7.070312 21.214844zm0 0" fill="#fff5f5"/><path d="m1.128906 280h22.894532c4.585937 0 8.539062 3.128906 9.691406 7.566406 3.355468 12.90625 15.085937 22.433594 29.039062 22.433594h70c13.957032 0 25.683594-9.527344 29.039063-22.433594 1.152343-4.4375 5.105469-7.566406 9.691406-7.566406h101.269531l-47.386718 230.167969c-119.097657-14.203125-213.078126-110.160157-224.238282-230.167969zm0 0" fill="#f8bb5e"/></svg>