<svg xmlns="http://www.w3.org/2000/svg" height="512.00002pt" version="1.1" viewBox="0 0 512.00002 512.00002" width="512.00002pt">
<g id="surface1">
<path d="M 379.585938 335.449219 L 379.585938 326.621094 C 379.585938 307.121094 395.394531 291.3125 414.898438 291.3125 C 434.398438 291.3125 450.207031 307.121094 450.207031 326.621094 L 450.207031 335.449219 L 476.6875 335.449219 L 476.6875 52.964844 L 0 52.964844 L 0 476.6875 L 321.324219 476.6875 L 335.449219 335.449219 Z M 77.621094 313.378906 L 52.648438 288.414062 L 77.621094 313.378906 L 127.558594 263.441406 Z M 77.621094 242.757812 L 52.648438 217.792969 L 77.621094 242.757812 L 127.558594 192.820312 Z M 77.621094 172.136719 L 52.648438 147.171875 L 77.621094 172.136719 L 127.558594 122.199219 Z M 77.621094 172.136719 " style=" stroke:none;fill-rule:nonzero;fill:rgb(100%,85.490196%,66.666667%);fill-opacity:1;" />
<path d="M 414.898438 291.308594 C 395.394531 291.308594 379.585938 307.121094 379.585938 326.621094 L 379.585938 335.449219 L 450.207031 335.449219 L 450.207031 326.621094 C 450.207031 307.121094 434.398438 291.308594 414.898438 291.308594 Z M 414.898438 291.308594 " style=" stroke:none;fill-rule:nonzero;fill:rgb(100%,85.490196%,66.666667%);fill-opacity:1;" />
<path d="M 0 0 L 476.691406 0 L 476.691406 52.964844 L 0 52.964844 Z M 0 0 " style=" stroke:none;fill-rule:nonzero;fill:rgb(14.117647%,53.333333%,100%);fill-opacity:1;" />
<path d="M 476.691406 335.449219 L 450.207031 335.449219 L 450.207031 361.929688 L 450.207031 335.449219 L 379.585938 335.449219 L 379.585938 361.929688 L 379.585938 335.449219 L 335.449219 335.449219 L 321.324219 476.691406 L 317.792969 512 L 512 512 L 494.34375 335.449219 Z M 476.691406 335.449219 " style=" stroke:none;fill-rule:nonzero;fill:rgb(56.862745%,86.27451%,35.294118%);fill-opacity:1;" />
<path d="M 450.207031 370.757812 C 445.332031 370.757812 441.378906 366.804688 441.378906 361.929688 L 441.378906 326.621094 C 441.378906 311.996094 429.523438 300.136719 414.898438 300.136719 C 400.269531 300.136719 388.414062 311.996094 388.414062 326.621094 L 388.414062 361.929688 C 388.414062 366.804688 384.460938 370.757812 379.585938 370.757812 C 374.710938 370.757812 370.761719 366.804688 370.761719 361.929688 L 370.761719 326.621094 C 370.761719 302.242188 390.519531 282.484375 414.898438 282.484375 C 439.273438 282.484375 459.035156 302.242188 459.035156 326.621094 L 459.035156 361.929688 C 459.035156 366.804688 455.082031 370.757812 450.207031 370.757812 Z M 450.207031 370.757812 " style=" stroke:none;fill-rule:nonzero;fill:rgb(94.509804%,94.901961%,94.901961%);fill-opacity:1;" />
<path d="M 26.484375 441.378906 L 44.136719 441.378906 L 44.136719 459.035156 L 26.484375 459.035156 Z M 26.484375 441.378906 " style=" stroke:none;fill-rule:nonzero;fill:rgb(94.509804%,94.901961%,94.901961%);fill-opacity:1;" />
<path d="M 26.484375 441.378906 L 44.136719 441.378906 L 44.136719 459.035156 L 26.484375 459.035156 Z M 26.484375 441.378906 " style=" stroke:none;fill-rule:nonzero;fill:rgb(94.509804%,94.901961%,94.901961%);fill-opacity:1;" />
<path d="M 61.792969 441.378906 L 79.449219 441.378906 L 79.449219 459.035156 L 61.792969 459.035156 Z M 61.792969 441.378906 " style=" stroke:none;fill-rule:nonzero;fill:rgb(94.509804%,94.901961%,94.901961%);fill-opacity:1;" />
<path d="M 97.101562 441.378906 L 114.757812 441.378906 L 114.757812 459.035156 L 97.101562 459.035156 Z M 97.101562 441.378906 " style=" stroke:none;fill-rule:nonzero;fill:rgb(94.509804%,94.901961%,94.901961%);fill-opacity:1;" />
<path d="M 132.414062 441.378906 L 150.070312 441.378906 L 150.070312 459.035156 L 132.414062 459.035156 Z M 132.414062 441.378906 " style=" stroke:none;fill-rule:nonzero;fill:rgb(94.509804%,94.901961%,94.901961%);fill-opacity:1;" />
<path d="M 167.722656 441.378906 L 185.378906 441.378906 L 185.378906 459.035156 L 167.722656 459.035156 Z M 167.722656 441.378906 " style=" stroke:none;fill-rule:nonzero;fill:rgb(94.509804%,94.901961%,94.901961%);fill-opacity:1;" />
<path d="M 203.035156 441.378906 L 220.691406 441.378906 L 220.691406 459.035156 L 203.035156 459.035156 Z M 203.035156 441.378906 " style=" stroke:none;fill-rule:nonzero;fill:rgb(94.509804%,94.901961%,94.901961%);fill-opacity:1;" />
<path d="M 238.34375 441.378906 L 256 441.378906 L 256 459.035156 L 238.34375 459.035156 Z M 238.34375 441.378906 " style=" stroke:none;fill-rule:nonzero;fill:rgb(94.509804%,94.901961%,94.901961%);fill-opacity:1;" />
<path d="M 273.65625 441.378906 L 291.308594 441.378906 L 291.308594 459.035156 L 273.65625 459.035156 Z M 273.65625 441.378906 " style=" stroke:none;fill-rule:nonzero;fill:rgb(94.509804%,94.901961%,94.901961%);fill-opacity:1;" />
<path d="M 77.621094 184.621094 L 46.414062 153.414062 L 58.898438 140.933594 L 77.621094 159.65625 L 121.316406 115.960938 L 133.800781 128.441406 Z M 77.621094 184.621094 " style=" stroke:none;fill-rule:nonzero;fill:rgb(100%,65.490196%,20%);fill-opacity:1;" />
<path d="M 77.621094 255.242188 L 46.414062 224.035156 L 58.898438 211.554688 L 77.621094 230.277344 L 121.316406 186.578125 L 133.800781 199.0625 Z M 77.621094 255.242188 " style=" stroke:none;fill-rule:nonzero;fill:rgb(100%,65.490196%,20%);fill-opacity:1;" />
<path d="M 77.621094 325.863281 L 46.414062 294.65625 L 58.898438 282.171875 L 77.621094 300.898438 L 121.316406 257.199219 L 133.800781 269.683594 Z M 77.621094 325.863281 " style=" stroke:none;fill-rule:nonzero;fill:rgb(100%,65.490196%,20%);fill-opacity:1;" />
<path d="M 141.242188 150.070312 L 353.105469 150.070312 L 353.105469 167.722656 L 141.242188 167.722656 Z M 141.242188 150.070312 " style=" stroke:none;fill-rule:nonzero;fill:rgb(100%,71.372549%,33.333333%);fill-opacity:1;" />
<path d="M 141.242188 220.691406 L 353.105469 220.691406 L 353.105469 238.34375 L 141.242188 238.34375 Z M 141.242188 220.691406 " style=" stroke:none;fill-rule:nonzero;fill:rgb(100%,71.372549%,33.333333%);fill-opacity:1;" />
<path d="M 141.242188 291.308594 L 353.105469 291.308594 L 353.105469 308.964844 L 141.242188 308.964844 Z M 141.242188 291.308594 " style=" stroke:none;fill-rule:nonzero;fill:rgb(100%,71.372549%,33.333333%);fill-opacity:1;" />
</g>
</svg>