<svg xmlns="http://www.w3.org/2000/svg" viewBox="0 0 2851.97 562.74"><defs><style>.cls-1{fill:#fff;}</style></defs><title>white cloud</title><g id="Layer_2" data-name="Layer 2"><g id="OBJECTS"><path class="cls-1" d="M2764,187.54c0-25.56-2-64.88-27.52-74.71-27.53-9.83-53.09,2-66.85,29.49,6.72-13.44-61.43-60.76-71.48-66.27-30.18-16.56-64.07-21-98.06-17.86-41.62,3.89-82,16.88-114.51,43.81-14.82,12.27-27.77,26.3-40,41.12-4.86,5.91-19,19.62-23.14,30.68,2.26-30-7.86-61.9-57.87-80-41.94-7.21-72.09,3.28-82.57,28.84-5.9-15.73-9.83-33.42-23.6-39.32-31.45-9.83-68.81-2-90.44,29.49,3.45-5-30.8-41.36-35-45.57a203.1,203.1,0,0,0-46.62-35.39c-37.2-20.41-83.24-29.3-125.24-31.57-46-2.49-90.62,10.81-130.18,33.86a241.84,241.84,0,0,0-51.21,39.55c-5.46,5.58-43.34,44.14-40.4,50.92-19.66-45.23-82.57-66.85-116-23.6-11.8,11.8-17.69,25.56-13.76,45.22a122.64,122.64,0,0,0-35-21.82v-1.25c-15-6.85-31.71-9.73-48.6-9.27-16.88-.46-33.63,2.42-48.59,9.27v1.25a122.5,122.5,0,0,0-35,21.82c3.93-19.66-2-33.42-13.76-45.22-33.43-43.25-96.34-21.63-116,23.6,2.94-6.78-34.95-45.34-40.41-50.92A241.53,241.53,0,0,0,1121,34.16c-39.56-23-84.18-36.35-130.18-33.86-42,2.27-88,11.16-125.25,31.57A203.26,203.26,0,0,0,819,67.26c-4.16,4.21-38.41,40.56-35,45.57-21.63-31.46-59-39.32-90.44-29.49-13.77,5.9-17.7,23.59-23.6,39.32-10.48-25.56-40.63-36-82.57-28.84-50,18.08-60.13,50-57.87,80-4.11-11.06-18.28-24.77-23.14-30.68-12.19-14.82-25.14-28.85-40-41.12-32.54-26.93-72.89-39.92-114.51-43.81-34-3.18-67.88,1.3-98.06,17.86-10.05,5.51-78.2,52.83-71.48,66.27-13.76-27.53-39.32-39.32-66.85-29.49C90,122.66,88,162,88,187.54c-29.16-1.08-63,6.17-88,22.67V562.74H2852V210.21C2827,193.71,2793.12,186.46,2764,187.54Z"/></g></g></svg>